<?xml version="1.0" encoding="UTF-8" standalone="no"?>
<!-- Created with Inkscape (http://www.inkscape.org/) -->

<svg
   xmlns:dc="http://purl.org/dc/elements/1.1/"
   xmlns:cc="http://creativecommons.org/ns#"
   xmlns:rdf="http://www.w3.org/1999/02/22-rdf-syntax-ns#"
   xmlns:svg="http://www.w3.org/2000/svg"
   xmlns="http://www.w3.org/2000/svg"
   xmlns:sodipodi="http://sodipodi.sourceforge.net/DTD/sodipodi-0.dtd"
   xmlns:inkscape="http://www.inkscape.org/namespaces/inkscape"
   width="210mm"
   height="297mm"
   viewBox="0 0 210 297"
   version="1.1"
   id="svg8"
   inkscape:version="0.92.4 (5da689c313, 2019-01-14)"
   sodipodi:docname="绘图.svg">
  <defs
     id="defs2" />
  <sodipodi:namedview
     id="base"
     pagecolor="#ffffff"
     bordercolor="#666666"
     borderopacity="1.0"
     inkscape:pageopacity="0.0"
     inkscape:pageshadow="2"
     inkscape:zoom="0.35"
     inkscape:cx="-498.57143"
     inkscape:cy="562.85714"
     inkscape:document-units="mm"
     inkscape:current-layer="svg8"
     showgrid="false"
     inkscape:window-width="1920"
     inkscape:window-height="986"
     inkscape:window-x="-11"
     inkscape:window-y="-11"
     inkscape:window-maximized="1" />
  <metadata
     id="metadata5">
    <rdf:RDF>
      <cc:Work
         rdf:about="">
        <dc:format>image/svg+xml</dc:format>
        <dc:type
           rdf:resource="http://purl.org/dc/dcmitype/StillImage" />
        <dc:title></dc:title>
      </cc:Work>
    </rdf:RDF>
  </metadata>
  <g
     inkscape:label="Layer 1"
     inkscape:groupmode="layer"
     id="layer1" />
  <ellipse
     id="path3769"
     cx="109.23512"
     cy="101.96429"
     rx="38.931545"
     ry="34.017857"
     style="stroke-width:0.26458332" />
  <rect
     id="rect3771"
     width="128.5119"
     height="76.351196"
     x="46.869045"
     y="148.07738"
     style="stroke-width:0.26458332" />
  <path
     sodipodi:type="star"
     id="path3773"
     sodipodi:sides="5"
     sodipodi:cx="45.357143"
     sodipodi:cy="33.172619"
     sodipodi:r1="11.735537"
     sodipodi:r2="5.8677678"
     sodipodi:arg1="0.26060239"
     sodipodi:arg2="0.88892092"
     inkscape:flatsided="false"
     inkscape:rounded="0"
     inkscape:randomized="0"
     d="m 56.696429,36.196428 -7.641124,1.531879 -3.069943,7.163022 -3.818141,-6.793764 -7.761103,-0.706195 5.281383,-5.730656 -1.726682,-7.599473 7.082215,3.252023 6.693955,-3.990538 -0.904333,7.740517 z"
     inkscape:transform-center-x="-0.19412954"
     inkscape:transform-center-y="0.9344081"
     style="stroke-width:0.26458332" />
  <path
     sodipodi:type="star"
     id="path3775"
     sodipodi:sides="5"
     sodipodi:cx="75.595238"
     sodipodi:cy="31.660711"
     sodipodi:r1="17.968782"
     sodipodi:r2="8.9843922"
     sodipodi:arg1="0.25518239"
     sodipodi:arg2="0.88350092"
     inkscape:flatsided="false"
     inkscape:rounded="0"
     inkscape:randomized="0"
     d="M 92.982142,36.196425 81.295376,38.60533 76.654366,49.598253 70.751953,39.22787 58.862911,38.211007 66.901785,29.392854 64.194963,17.771476 75.065673,22.69194 85.281807,16.526395 83.961402,28.385563 Z"
     inkscape:transform-center-x="-0.32728773"
     inkscape:transform-center-y="1.4016124"
     style="stroke-width:0.26458332" />
  <path
     sodipodi:type="star"
     id="path3777"
     sodipodi:sides="5"
     sodipodi:cx="127.75595"
     sodipodi:cy="41.488094"
     sodipodi:r1="10.142166"
     sodipodi:r2="5.0710831"
     sodipodi:arg1="0.46364761"
     sodipodi:arg2="1.0919661"
     inkscape:flatsided="false"
     inkscape:rounded="0"
     inkscape:randomized="0"
     d="m 136.82738,46.023809 -6.73497,-0.03495 -3.84695,5.528294 -2.04798,-6.41614 -6.4465,-1.950333 5.46926,-3.930439 -0.1372,-6.733665 5.42816,3.986995 6.3617,-2.211302 -2.11447,6.394538 z"
     inkscape:transform-center-x="0.46677024"
     inkscape:transform-center-y="0.51376556"
     style="stroke-width:0.26458332" />
  <path
     sodipodi:type="star"
     id="path3779"
     sodipodi:sides="5"
     sodipodi:cx="161.7738"
     sodipodi:cy="75.505951"
     sodipodi:r1="15.005226"
     sodipodi:r2="7.5026131"
     sodipodi:arg1="0.85670563"
     sodipodi:arg2="1.4850242"
     inkscape:flatsided="false"
     inkscape:rounded="0"
     inkscape:randomized="0"
     d="m 171.60118,86.845237 -9.18465,-3.864254 -8.3902,5.375394 0.83691,-9.929245 -7.70502,-6.318466 9.70189,-2.272358 3.62824,-9.280421 5.15919,8.524851 9.94739,0.58285 -6.51333,7.541006 z"
     inkscape:transform-center-x="0.39722894"
     inkscape:transform-center-y="-1.0498198"
     style="stroke-width:0.26458332" />
  <path
     sodipodi:type="star"
     id="path3781"
     sodipodi:sides="5"
     sodipodi:cx="174.625"
     sodipodi:cy="108.76785"
     sodipodi:r1="24.378733"
     sodipodi:r2="12.189366"
     sodipodi:arg1="1.0516502"
     sodipodi:arg2="1.6799687"
     inkscape:flatsided="false"
     inkscape:rounded="0"
     inkscape:randomized="0"
     d="m 186.72024,129.93452 -13.42334,-9.04987 -15.06496,5.92732 4.45889,-15.56292 -10.29254,-12.495988 16.17909,-0.568543 8.70382,-13.650263 5.54033,15.211539 15.6718,4.059665 -12.75498,9.96979 z"
     inkscape:transform-center-x="-0.82080914"
     inkscape:transform-center-y="-1.5334658"
     style="stroke-width:0.26458332" />
  <path
     id="path3783"
     d="m 18.052884,241.4617 c 1.820462,1.72313 3.625188,3.46513 5.537638,5.08924 2.29045,1.51952 4.682638,2.91427 7.227401,3.96199 0.923972,0.22698 1.912662,0.74661 2.891427,0.7274 0.823429,-0.0162 1.757191,-0.60093 2.497127,-0.90247 3.804674,-2.37142 -0.850133,0.54368 -8.011834,4.53399 -0.266285,0.14837 0.5013,-0.34748 0.741984,-0.53454 0.717317,-0.5575 1.332074,-1.19326 1.94837,-1.85656 4.382421,-4.32368 9.8576,-6.74076 15.703053,-7.57531 2.176494,-0.3786 4.290692,-0.30115 6.430811,0.19925 2.387846,0.59689 4.761894,1.18102 7.205134,1.50733 2.098796,0.48766 3.861323,-0.21171 5.803302,-0.89511 2.15179,-1.00583 4.418769,-1.46933 6.764853,-1.69319 2.458717,-0.17627 4.92429,-0.20188 7.388167,-0.19047 2.62804,0.007 5.24402,-0.0653 7.85374,0.27153 2.983535,0.56783 1.382123,3.13136 2.1584,5.04066 0.133302,0.32786 0.423156,0.56744 0.634732,0.85116 3.864399,2.67204 8.609277,3.66217 13.120011,4.69 4.26244,0.78762 8.37328,2.08362 12.41832,3.60988 1.41485,0.34735 2.89036,1.24624 4.39194,1.23256 0.2651,-0.002 1.27853,-0.33656 1.52223,-0.4121 0.20692,-0.13017 0.83378,-0.51046 0.62077,-0.39051 -2.99225,1.68491 -5.96558,3.40328 -8.95917,5.08581 -0.24484,0.13761 0.46829,-0.3109 0.71197,-0.45054 3.4355,-1.96861 6.8473,-3.98036 10.32481,-5.87378 2.9965,-1.63151 -11.82607,6.8114 -8.88149,5.08794 3.39397,-1.98649 6.8198,-3.91803 10.2297,-5.87704 -18.56484,16.24918 -11.24849,6.42279 -8.4501,4.7932 3.37275,-1.96405 6.73735,-3.94295 10.14218,-5.85083 0.32316,-0.18108 0.88639,-0.2473 1.24829,-0.17512 0.22381,0.0446 0.42717,0.16079 0.64076,0.24119 1.76715,0.90611 3.64064,1.23807 5.59507,1.46175 2.56021,0.29567 5.1265,-0.11529 7.68078,-0.29571 2.46355,-0.32036 4.76615,-1.32269 6.97594,-2.41266 1.68176,-0.8935 3.49653,-1.32479 5.37548,-1.50958 1.55621,-0.3892 3.21048,-0.17865 4.80255,-0.13004 0.84551,-0.0914 1.75199,0.18615 2.5931,0.0518 0.26304,-0.042 0.98447,-0.3996 0.75283,-0.26806 -10.20868,5.79692 -11.24425,6.63385 -7.48016,3.8866 2.00051,-1.245 3.3259,-3.43747 5.36731,-4.61904 3.44211,-1.99229 6.92984,-3.90469 10.39476,-5.85705 1.93686,-0.449 3.22501,1.11776 4.65626,2.13339 0,0 -9.43948,5.98351 -9.43948,5.98351 v 0 c -1.25773,-0.95439 -2.30655,-2.01255 -3.9576,-1.20509 2.89436,-1.70602 5.78872,-3.41203 8.68307,-5.11804 -0.31488,0.19631 -0.64157,0.37485 -0.94464,0.58894 -1.65424,1.16855 -2.93386,2.75692 -4.52558,3.99965 -4.80868,4.03407 -9.08917,7.63769 -15.14126,6.95668 -1.58053,-0.0335 -3.16025,-0.0703 -4.71355,0.28252 -1.79054,0.30075 -3.48248,0.89632 -5.10139,1.72397 -2.31514,1.0073 -4.68938,1.94635 -7.23837,2.10929 -2.57403,0.19746 -5.16544,0.42683 -7.73834,0.0725 -2.00227,-0.25447 -3.88624,-0.75239 -5.7906,-1.39424 -0.47817,0.063 -0.41271,0.0195 -0.87524,0.23309 -0.18749,0.0866 -0.72841,0.38914 -0.55024,0.28473 3.00187,-1.75923 6.01036,-3.50714 9.02202,-5.24955 0.1895,-0.10964 -0.37009,0.23399 -0.55514,0.35099 -3.3774,1.98286 -6.75479,3.96572 -10.13219,5.94858 22.72776,-13.14252 -0.10629,0.0738 -1.36007,0.74393 -2.99418,1.60038 5.87425,-3.40565 8.80796,-5.11436 0.23604,-0.13748 -0.47832,0.26405 -0.71488,0.40064 -10.49004,6.05698 -6.42126,4.89104 -10.97387,6.11839 -2.16917,0.25487 -4.1623,-0.65014 -6.14551,-1.43942 -3.93717,-1.57688 -7.99393,-2.76387 -12.154045,-3.60763 -4.048223,-0.99336 -8.772077,-1.93234 -12.366392,-4.12466 -0.505841,-0.30853 -0.945126,-0.71484 -1.41769,-1.07227 -0.900986,-1.30246 -0.991719,-1.07086 -1.144511,-2.6096 -0.0416,-0.41895 -0.01577,-0.84251 0.0047,-1.26302 0.01191,-0.24503 0.182681,-0.50211 0.09225,-0.73015 -0.130863,-0.32997 -1.118614,-0.45014 -1.290897,-0.48731 -2.57071,-0.2945 -5.155435,-0.18062 -7.738573,-0.18415 -2.439546,0.026 -4.886333,0.0205 -7.313856,0.29699 -2.303375,0.33825 -4.494607,1.00419 -6.647889,1.89221 -2.042657,0.6668 -3.979336,0.96525 -6.111068,0.46469 -2.43927,-0.40965 -4.821356,-1.04921 -7.243897,-1.53841 -2.063549,-0.31932 -4.109776,-0.28469 -6.170234,0.096 -1.217002,0.2216 -2.401634,0.45902 -3.560069,0.90772 -0.330611,0.12806 -1.276509,0.6125 -0.973625,0.42821 2.639338,-1.60592 12.128976,-7.15985 7.985496,-4.70504 -2.539215,2.56257 1.472501,-1.52252 -1.207138,1.33915 -3.361939,3.59032 -8.10046,5.69512 -12.545176,7.66561 -2.369336,0.77186 -3.578719,0.40967 -5.840284,-0.54479 -2.570934,-1.19613 -5.063948,-2.60002 -7.366858,-4.25613 -1.911581,-1.63145 -3.705761,-3.40217 -5.6729213,-4.96445 0,0 9.4991373,-5.96666 9.4991373,-5.96666 z"
     inkscape:connector-curvature="0"
     style="stroke-width:0.26458332" />
</svg>
